# xmcd
#
# Track frame offsets: 
#        150
#        24100
#        45048
#        67755
#        95622
#        121424
#        143594
#        164500
#        184194
#        205559
#        224931
#        253026
#        273781
#        294803
#        316452
#        345076
#
# Disc length: 4771 seconds
#
# Revision: 0
# Processed by: cddbd v1.5.2PL0 Copyright (c) Steve Scherf et al.
# Submitted via: ExactAudioCopy v0.95a5
#
DISCID=d812a110
DTITLE=Various Artist - Still Got the Blues   CD-4
DYEAR=2004
DGENRE=Blues
TTITLE0=Do Tou Believe In Love - VARGAS Blues Band and CHRIS REA
TTITLE1=Fallin' Back Into the Blue - MILLER ANDERSON
TTITLE2=Another Case Of Shinles Blues - Dr.SAM and MANAGED CARE BLUE BAN
TTITLE2=D
TTITLE3=Don't Let Me Down - TONY SARNO
TTITLE4=Gold Rain - LITTLE BLUE
TTITLE5=For Better Or For Worse - WILLIE LOMAX
TTITLE6=No Rules To The Come - ERIC CULBERSON
TTITLE7=Victim Of Circumstance - SHERMAN ROBERTSON
TTITLE8=Woman's Got The Power - The BEAT DADDYS
TTITLE9=Love's Name - JOHN CAMPBELL
TTITLE10=One More Mile - TINO GONZALES
TTITLE11=Too Proud - MIGHTY SAM McCLAIN
TTITLE12=It Could All Get Blown Away - JEFF HEALEY
TTITLE13=And I Love Her - The HOLMES BROTHERS
TTITLE14=Just For You - PAUL KOSSOFF
TTITLE15=My Sonata - ROY BUCHANAN
EXTD=
EXTT0=
EXTT1=
EXTT2=
EXTT3=
EXTT4=
EXTT5=
EXTT6=
EXTT7=
EXTT8=
EXTT9=
EXTT10=
EXTT11=
EXTT12=
EXTT13=
EXTT14=
EXTT15=
PLAYORDER=
